<svg width="40" height="32" viewBox="0 0 40 32" fill="none" xmlns="http://www.w3.org/2000/svg">
<path d="M32.7832 4.36476C32.773 4.34497 32.756 4.32946 32.7354 4.32101C30.3527 3.22776 27.8383 2.44821 25.2551 2.00188C25.2316 1.99756 25.2074 2.00072 25.1858 2.01093C25.1642 2.02114 25.1464 2.03787 25.1349 2.05876C24.7925 2.68022 24.4817 3.31852 24.2036 3.97126C21.419 3.54861 18.5866 3.54861 15.802 3.97126C15.522 3.31687 15.2063 2.6784 14.8561 2.05876C14.844 2.0383 14.8261 2.02193 14.8047 2.01179C14.7832 2.00164 14.7592 1.99819 14.7358 2.00188C12.1523 2.44732 9.6377 3.22693 7.2553 4.32107C7.23488 4.32967 7.21766 4.34445 7.20605 4.36332C2.44174 11.4782 1.13662 18.4181 1.77687 25.2721C1.77868 25.2889 1.78385 25.3052 1.79206 25.3199C1.80027 25.3347 1.81137 25.3477 1.82468 25.3581C4.59892 27.4121 7.7019 28.98 11.0012 29.9949C11.0245 30.0019 11.0493 30.0015 11.0723 29.994C11.0954 29.9864 11.1156 29.972 11.1302 29.9526C11.8389 28.9885 12.4668 27.9675 13.0075 26.9C13.0149 26.8854 13.0192 26.8693 13.0199 26.8529C13.0207 26.8365 13.018 26.8201 13.012 26.8048C13.006 26.7895 12.9968 26.7757 12.985 26.7642C12.9733 26.7528 12.9592 26.7439 12.9438 26.7383C11.9536 26.3594 10.995 25.9027 10.0771 25.3724C10.0604 25.3626 10.0464 25.3489 10.0363 25.3324C10.0262 25.3159 10.0203 25.2972 10.0192 25.2778C10.018 25.2585 10.0216 25.2392 10.0297 25.2217C10.0378 25.2041 10.0501 25.1888 10.0655 25.1771C10.2587 25.0328 10.4485 24.8841 10.6348 24.731C10.6511 24.7176 10.6709 24.7089 10.6919 24.7061C10.7129 24.7033 10.7342 24.7064 10.7536 24.715C16.7679 27.4598 23.2792 27.4598 29.2223 24.715C29.2417 24.7058 29.2633 24.7023 29.2845 24.7048C29.3058 24.7074 29.326 24.716 29.3426 24.7296C29.5291 24.8834 29.7194 25.0326 29.9133 25.1771C29.9288 25.1887 29.9412 25.2039 29.9494 25.2214C29.9576 25.2389 29.9614 25.2581 29.9604 25.2775C29.9594 25.2968 29.9536 25.3155 29.9437 25.3321C29.9337 25.3487 29.9198 25.3625 29.9032 25.3724C28.9872 25.9072 28.0278 26.3636 27.0351 26.7368C27.0196 26.7427 27.0056 26.7517 26.994 26.7634C26.9823 26.775 26.9732 26.789 26.9673 26.8044C26.9614 26.8198 26.9588 26.8363 26.9597 26.8528C26.9606 26.8693 26.965 26.8853 26.9726 26.9C27.5224 27.9615 28.1494 28.9812 28.8484 29.9509C28.8626 29.9709 28.8827 29.9858 28.9058 29.9937C28.929 30.0015 28.954 30.0019 28.9774 29.9947C32.2827 28.9834 35.3911 27.4153 38.1687 25.3581C38.1823 25.3482 38.1935 25.3356 38.2018 25.321C38.21 25.3064 38.2151 25.2902 38.2166 25.2736C38.9831 17.3496 36.9333 10.4666 32.7832 4.36476ZM13.9057 21.0988C12.0949 21.0988 10.6029 19.4371 10.6029 17.3963C10.6029 15.3556 12.066 13.6938 13.9057 13.6938C15.7597 13.6938 17.2373 15.37 17.2084 17.3962C17.2084 19.4371 15.7452 21.0988 13.9057 21.0988ZM26.1169 21.0988C24.3062 21.0988 22.8142 19.4371 22.8142 17.3963C22.8142 15.3556 24.2773 13.6938 26.1169 13.6938C27.9711 13.6938 29.4486 15.37 29.4197 17.3962C29.4197 19.4371 27.9711 21.0988 26.1169 21.0988Z" fill="white"/>
</svg>
