<svg width="32" height="32" viewBox="0 0 32 32" fill="none" xmlns="http://www.w3.org/2000/svg">
<path d="M16.0001 22.6667C15.6597 22.6649 15.324 22.5875 15.0172 22.4399C14.7105 22.2923 14.4405 22.0783 14.2268 21.8133L8.61343 15.0133C8.28542 14.6039 8.07901 14.1107 8.01772 13.5897C7.95642 13.0687 8.04272 12.541 8.26676 12.0667C8.44847 11.6544 8.74499 11.3032 9.12092 11.055C9.49685 10.8067 9.93629 10.6719 10.3868 10.6667H21.6134C22.0639 10.6719 22.5033 10.8067 22.8793 11.055C23.2552 11.3032 23.5517 11.6544 23.7334 12.0667C23.9575 12.541 24.0438 13.0687 23.9825 13.5897C23.9212 14.1107 23.7148 14.6039 23.3868 15.0133L17.7734 21.8133C17.5597 22.0783 17.2897 22.2923 16.9829 22.4399C16.6762 22.5875 16.3405 22.6649 16.0001 22.6667Z" fill="white"/>
</svg>
