<svg width="36" height="32" viewBox="0 0 36 32" fill="none" xmlns="http://www.w3.org/2000/svg">
<path d="M34.3532 7.75519C33.9607 6.27706 32.804 5.11294 31.3355 4.71788C28.6736 4 17.9998 4 17.9998 4C17.9998 4 7.32604 4 4.66411 4.71788C3.19554 5.113 2.03892 6.27706 1.64636 7.75519C0.933105 10.4344 0.933105 16.0243 0.933105 16.0243C0.933105 16.0243 0.933105 21.6141 1.64636 24.2933C2.03892 25.7714 3.19554 26.8871 4.66411 27.2821C7.32604 28 17.9998 28 17.9998 28C17.9998 28 28.6735 28 31.3355 27.2821C32.804 26.8871 33.9607 25.7714 34.3532 24.2933C35.0665 21.6141 35.0665 16.0243 35.0665 16.0243C35.0665 16.0243 35.0665 10.4344 34.3532 7.75519ZM14.5089 21.0994V10.9491L23.43 16.0244L14.5089 21.0994Z" fill="white"/>
</svg>
