<svg width="36" height="32" viewBox="0 0 36 32" fill="none" xmlns="http://www.w3.org/2000/svg">
<path d="M34.3535 7.75519C33.9609 6.27706 32.8043 5.11294 31.3357 4.71788C28.6738 4 18 4 18 4C18 4 7.32629 4 4.66435 4.71788C3.19579 5.113 2.03916 6.27706 1.6466 7.75519C0.93335 10.4344 0.93335 16.0243 0.93335 16.0243C0.93335 16.0243 0.93335 21.6141 1.6466 24.2933C2.03916 25.7714 3.19579 26.8871 4.66435 27.2821C7.32629 28 18 28 18 28C18 28 28.6738 28 31.3357 27.2821C32.8043 26.8871 33.9609 25.7714 34.3535 24.2933C35.0667 21.6141 35.0667 16.0243 35.0667 16.0243C35.0667 16.0243 35.0667 10.4344 34.3535 7.75519ZM14.5091 21.0994V10.9491L23.4303 16.0244L14.5091 21.0994Z" fill="white"/>
</svg>
